<?xml version="1.0" encoding="UTF-8"?>
<svg xmlns="http://www.w3.org/2000/svg" width="210mm" height="297mm" viewBox="0 0 210 297"><title>Sheet C – ruler frame</title>
<rect width="210" height="297" fill="#fff"/><g id="aruco-0"><rect x="15" y="15" width="25" height="25" fill="#000"/><rect x="18.125" y="18.125" width="3.125" height="3.125" fill="#fff"/><rect x="21.25" y="18.125" width="3.125" height="3.125" fill="#fff"/><rect x="27.5" y="18.125" width="3.125" height="3.125" fill="#fff"/><rect x="18.125" y="21.25" width="3.125" height="3.125" fill="#fff"/><rect x="24.375" y="21.25" width="3.125" height="3.125" fill="#fff"/><rect x="30.625" y="21.25" width="3.125" height="3.125" fill="#fff"/><rect x="33.75" y="21.25" width="3.125" height="3.125" fill="#fff"/><rect x="21.25" y="24.375" width="3.125" height="3.125" fill="#fff"/><rect x="24.375" y="24.375" width="3.125" height="3.125" fill="#fff"/><rect x="18.125" y="27.5" width="3.125" height="3.125" fill="#fff"/><rect x="21.25" y="27.5" width="3.125" height="3.125" fill="#fff"/><rect x="24.375" y="27.5" width="3.125" height="3.125" fill="#fff"/><rect x="30.625" y="27.5" width="3.125" height="3.125" fill="#fff"/><rect x="30.625" y="30.625" width="3.125" height="3.125" fill="#fff"/><rect x="21.25" y="33.75" width="3.125" height="3.125" fill="#fff"/><rect x="24.375" y="33.75" width="3.125" height="3.125" fill="#fff"/><rect x="27.5" y="33.75" width="3.125" height="3.125" fill="#fff"/><rect x="33.75" y="33.75" width="3.125" height="3.125" fill="#fff"/></g><g id="aruco-1"><rect x="170" y="15" width="25" height="25" fill="#000"/><rect x="176.25" y="18.125" width="3.125" height="3.125" fill="#fff"/><rect x="179.375" y="18.125" width="3.125" height="3.125" fill="#fff"/><rect x="182.5" y="24.375" width="3.125" height="3.125" fill="#fff"/><rect x="176.25" y="27.5" width="3.125" height="3.125" fill="#fff"/><rect x="185.625" y="27.5" width="3.125" height="3.125" fill="#fff"/><rect x="188.75" y="27.5" width="3.125" height="3.125" fill="#fff"/><rect x="176.25" y="30.625" width="3.125" height="3.125" fill="#fff"/><rect x="185.625" y="30.625" width="3.125" height="3.125" fill="#fff"/><rect x="188.75" y="30.625" width="3.125" height="3.125" fill="#fff"/><rect x="173.125" y="33.75" width="3.125" height="3.125" fill="#fff"/><rect x="182.5" y="33.75" width="3.125" height="3.125" fill="#fff"/><rect x="188.75" y="33.75" width="3.125" height="3.125" fill="#fff"/></g><g id="aruco-2"><rect x="170" y="257" width="25" height="25" fill="#000"/><rect x="182.5" y="260.125" width="3.125" height="3.125" fill="#fff"/><rect x="173.125" y="263.25" width="3.125" height="3.125" fill="#fff"/><rect x="176.25" y="266.375" width="3.125" height="3.125" fill="#fff"/><rect x="179.375" y="266.375" width="3.125" height="3.125" fill="#fff"/><rect x="185.625" y="266.375" width="3.125" height="3.125" fill="#fff"/><rect x="188.75" y="266.375" width="3.125" height="3.125" fill="#fff"/><rect x="173.125" y="269.5" width="3.125" height="3.125" fill="#fff"/><rect x="176.25" y="269.5" width="3.125" height="3.125" fill="#fff"/><rect x="179.375" y="269.5" width="3.125" height="3.125" fill="#fff"/><rect x="185.625" y="269.5" width="3.125" height="3.125" fill="#fff"/><rect x="188.75" y="269.5" width="3.125" height="3.125" fill="#fff"/><rect x="173.125" y="272.625" width="3.125" height="3.125" fill="#fff"/><rect x="176.25" y="272.625" width="3.125" height="3.125" fill="#fff"/><rect x="179.375" y="272.625" width="3.125" height="3.125" fill="#fff"/><rect x="188.75" y="272.625" width="3.125" height="3.125" fill="#fff"/><rect x="173.125" y="275.75" width="3.125" height="3.125" fill="#fff"/><rect x="176.25" y="275.75" width="3.125" height="3.125" fill="#fff"/><rect x="185.625" y="275.75" width="3.125" height="3.125" fill="#fff"/></g><g id="aruco-3"><rect x="15" y="257" width="25" height="25" fill="#000"/><rect x="18.125" y="260.125" width="3.125" height="3.125" fill="#fff"/><rect x="21.25" y="260.125" width="3.125" height="3.125" fill="#fff"/><rect x="24.375" y="260.125" width="3.125" height="3.125" fill="#fff"/><rect x="27.5" y="260.125" width="3.125" height="3.125" fill="#fff"/><rect x="30.625" y="260.125" width="3.125" height="3.125" fill="#fff"/><rect x="33.75" y="260.125" width="3.125" height="3.125" fill="#fff"/><rect x="18.125" y="263.25" width="3.125" height="3.125" fill="#fff"/><rect x="21.25" y="263.25" width="3.125" height="3.125" fill="#fff"/><rect x="24.375" y="263.25" width="3.125" height="3.125" fill="#fff"/><rect x="18.125" y="266.375" width="3.125" height="3.125" fill="#fff"/><rect x="24.375" y="266.375" width="3.125" height="3.125" fill="#fff"/><rect x="30.625" y="266.375" width="3.125" height="3.125" fill="#fff"/><rect x="33.75" y="266.375" width="3.125" height="3.125" fill="#fff"/><rect x="21.25" y="269.5" width="3.125" height="3.125" fill="#fff"/><rect x="27.5" y="269.5" width="3.125" height="3.125" fill="#fff"/><rect x="30.625" y="269.5" width="3.125" height="3.125" fill="#fff"/><rect x="18.125" y="272.625" width="3.125" height="3.125" fill="#fff"/><rect x="21.25" y="272.625" width="3.125" height="3.125" fill="#fff"/><rect x="30.625" y="272.625" width="3.125" height="3.125" fill="#fff"/><rect x="18.125" y="275.75" width="3.125" height="3.125" fill="#fff"/><rect x="21.25" y="275.75" width="3.125" height="3.125" fill="#fff"/><rect x="27.5" y="275.75" width="3.125" height="3.125" fill="#fff"/></g><line x1="11" y1="45" x2="11" y2="252" stroke="#000" stroke-width="0.3"/><line x1="11" y1="45" x2="16" y2="45" stroke="#000" stroke-width="0.2"/><line x1="11" y1="46" x2="12.1" y2="46" stroke="#000" stroke-width="0.2"/><line x1="11" y1="47" x2="12.1" y2="47" stroke="#000" stroke-width="0.2"/><line x1="11" y1="48" x2="12.1" y2="48" stroke="#000" stroke-width="0.2"/><line x1="11" y1="49" x2="12.1" y2="49" stroke="#000" stroke-width="0.2"/><line x1="11" y1="50" x2="13.2" y2="50" stroke="#000" stroke-width="0.2"/><line x1="11" y1="51" x2="12.1" y2="51" stroke="#000" stroke-width="0.2"/><line x1="11" y1="52" x2="12.1" y2="52" stroke="#000" stroke-width="0.2"/><line x1="11" y1="53" x2="12.1" y2="53" stroke="#000" stroke-width="0.2"/><line x1="11" y1="54" x2="12.1" y2="54" stroke="#000" stroke-width="0.2"/><line x1="11" y1="55" x2="14.5" y2="55" stroke="#000" stroke-width="0.2"/><line x1="11" y1="56" x2="12.1" y2="56" stroke="#000" stroke-width="0.2"/><line x1="11" y1="57" x2="12.1" y2="57" stroke="#000" stroke-width="0.2"/><line x1="11" y1="58" x2="12.1" y2="58" stroke="#000" stroke-width="0.2"/><line x1="11" y1="59" x2="12.1" y2="59" stroke="#000" stroke-width="0.2"/><line x1="11" y1="60" x2="13.2" y2="60" stroke="#000" stroke-width="0.2"/><line x1="11" y1="61" x2="12.1" y2="61" stroke="#000" stroke-width="0.2"/><line x1="11" y1="62" x2="12.1" y2="62" stroke="#000" stroke-width="0.2"/><line x1="11" y1="63" x2="12.1" y2="63" stroke="#000" stroke-width="0.2"/><line x1="11" y1="64" x2="12.1" y2="64" stroke="#000" stroke-width="0.2"/><line x1="11" y1="65" x2="14.5" y2="65" stroke="#000" stroke-width="0.2"/><line x1="11" y1="66" x2="12.1" y2="66" stroke="#000" stroke-width="0.2"/><line x1="11" y1="67" x2="12.1" y2="67" stroke="#000" stroke-width="0.2"/><line x1="11" y1="68" x2="12.1" y2="68" stroke="#000" stroke-width="0.2"/><line x1="11" y1="69" x2="12.1" y2="69" stroke="#000" stroke-width="0.2"/><line x1="11" y1="70" x2="13.2" y2="70" stroke="#000" stroke-width="0.2"/><line x1="11" y1="71" x2="12.1" y2="71" stroke="#000" stroke-width="0.2"/><line x1="11" y1="72" x2="12.1" y2="72" stroke="#000" stroke-width="0.2"/><line x1="11" y1="73" x2="12.1" y2="73" stroke="#000" stroke-width="0.2"/><line x1="11" y1="74" x2="12.1" y2="74" stroke="#000" stroke-width="0.2"/><line x1="11" y1="75" x2="14.5" y2="75" stroke="#000" stroke-width="0.2"/><line x1="11" y1="76" x2="12.1" y2="76" stroke="#000" stroke-width="0.2"/><line x1="11" y1="77" x2="12.1" y2="77" stroke="#000" stroke-width="0.2"/><line x1="11" y1="78" x2="12.1" y2="78" stroke="#000" stroke-width="0.2"/><line x1="11" y1="79" x2="12.1" y2="79" stroke="#000" stroke-width="0.2"/><line x1="11" y1="80" x2="13.2" y2="80" stroke="#000" stroke-width="0.2"/><line x1="11" y1="81" x2="12.1" y2="81" stroke="#000" stroke-width="0.2"/><line x1="11" y1="82" x2="12.1" y2="82" stroke="#000" stroke-width="0.2"/><line x1="11" y1="83" x2="12.1" y2="83" stroke="#000" stroke-width="0.2"/><line x1="11" y1="84" x2="12.1" y2="84" stroke="#000" stroke-width="0.2"/><line x1="11" y1="85" x2="14.5" y2="85" stroke="#000" stroke-width="0.2"/><line x1="11" y1="86" x2="12.1" y2="86" stroke="#000" stroke-width="0.2"/><line x1="11" y1="87" x2="12.1" y2="87" stroke="#000" stroke-width="0.2"/><line x1="11" y1="88" x2="12.1" y2="88" stroke="#000" stroke-width="0.2"/><line x1="11" y1="89" x2="12.1" y2="89" stroke="#000" stroke-width="0.2"/><line x1="11" y1="90" x2="13.2" y2="90" stroke="#000" stroke-width="0.2"/><line x1="11" y1="91" x2="12.1" y2="91" stroke="#000" stroke-width="0.2"/><line x1="11" y1="92" x2="12.1" y2="92" stroke="#000" stroke-width="0.2"/><line x1="11" y1="93" x2="12.1" y2="93" stroke="#000" stroke-width="0.2"/><line x1="11" y1="94" x2="12.1" y2="94" stroke="#000" stroke-width="0.2"/><line x1="11" y1="95" x2="16" y2="95" stroke="#000" stroke-width="0.2"/><line x1="11" y1="96" x2="12.1" y2="96" stroke="#000" stroke-width="0.2"/><line x1="11" y1="97" x2="12.1" y2="97" stroke="#000" stroke-width="0.2"/><line x1="11" y1="98" x2="12.1" y2="98" stroke="#000" stroke-width="0.2"/><line x1="11" y1="99" x2="12.1" y2="99" stroke="#000" stroke-width="0.2"/><line x1="11" y1="100" x2="13.2" y2="100" stroke="#000" stroke-width="0.2"/><line x1="11" y1="101" x2="12.1" y2="101" stroke="#000" stroke-width="0.2"/><line x1="11" y1="102" x2="12.1" y2="102" stroke="#000" stroke-width="0.2"/><line x1="11" y1="103" x2="12.1" y2="103" stroke="#000" stroke-width="0.2"/><line x1="11" y1="104" x2="12.1" y2="104" stroke="#000" stroke-width="0.2"/><line x1="11" y1="105" x2="14.5" y2="105" stroke="#000" stroke-width="0.2"/><line x1="11" y1="106" x2="12.1" y2="106" stroke="#000" stroke-width="0.2"/><line x1="11" y1="107" x2="12.1" y2="107" stroke="#000" stroke-width="0.2"/><line x1="11" y1="108" x2="12.1" y2="108" stroke="#000" stroke-width="0.2"/><line x1="11" y1="109" x2="12.1" y2="109" stroke="#000" stroke-width="0.2"/><line x1="11" y1="110" x2="13.2" y2="110" stroke="#000" stroke-width="0.2"/><line x1="11" y1="111" x2="12.1" y2="111" stroke="#000" stroke-width="0.2"/><line x1="11" y1="112" x2="12.1" y2="112" stroke="#000" stroke-width="0.2"/><line x1="11" y1="113" x2="12.1" y2="113" stroke="#000" stroke-width="0.2"/><line x1="11" y1="114" x2="12.1" y2="114" stroke="#000" stroke-width="0.2"/><line x1="11" y1="115" x2="14.5" y2="115" stroke="#000" stroke-width="0.2"/><line x1="11" y1="116" x2="12.1" y2="116" stroke="#000" stroke-width="0.2"/><line x1="11" y1="117" x2="12.1" y2="117" stroke="#000" stroke-width="0.2"/><line x1="11" y1="118" x2="12.1" y2="118" stroke="#000" stroke-width="0.2"/><line x1="11" y1="119" x2="12.1" y2="119" stroke="#000" stroke-width="0.2"/><line x1="11" y1="120" x2="13.2" y2="120" stroke="#000" stroke-width="0.2"/><line x1="11" y1="121" x2="12.1" y2="121" stroke="#000" stroke-width="0.2"/><line x1="11" y1="122" x2="12.1" y2="122" stroke="#000" stroke-width="0.2"/><line x1="11" y1="123" x2="12.1" y2="123" stroke="#000" stroke-width="0.2"/><line x1="11" y1="124" x2="12.1" y2="124" stroke="#000" stroke-width="0.2"/><line x1="11" y1="125" x2="14.5" y2="125" stroke="#000" stroke-width="0.2"/><line x1="11" y1="126" x2="12.1" y2="126" stroke="#000" stroke-width="0.2"/><line x1="11" y1="127" x2="12.1" y2="127" stroke="#000" stroke-width="0.2"/><line x1="11" y1="128" x2="12.1" y2="128" stroke="#000" stroke-width="0.2"/><line x1="11" y1="129" x2="12.1" y2="129" stroke="#000" stroke-width="0.2"/><line x1="11" y1="130" x2="13.2" y2="130" stroke="#000" stroke-width="0.2"/><line x1="11" y1="131" x2="12.1" y2="131" stroke="#000" stroke-width="0.2"/><line x1="11" y1="132" x2="12.1" y2="132" stroke="#000" stroke-width="0.2"/><line x1="11" y1="133" x2="12.1" y2="133" stroke="#000" stroke-width="0.2"/><line x1="11" y1="134" x2="12.1" y2="134" stroke="#000" stroke-width="0.2"/><line x1="11" y1="135" x2="14.5" y2="135" stroke="#000" stroke-width="0.2"/><line x1="11" y1="136" x2="12.1" y2="136" stroke="#000" stroke-width="0.2"/><line x1="11" y1="137" x2="12.1" y2="137" stroke="#000" stroke-width="0.2"/><line x1="11" y1="138" x2="12.1" y2="138" stroke="#000" stroke-width="0.2"/><line x1="11" y1="139" x2="12.1" y2="139" stroke="#000" stroke-width="0.2"/><line x1="11" y1="140" x2="13.2" y2="140" stroke="#000" stroke-width="0.2"/><line x1="11" y1="141" x2="12.1" y2="141" stroke="#000" stroke-width="0.2"/><line x1="11" y1="142" x2="12.1" y2="142" stroke="#000" stroke-width="0.2"/><line x1="11" y1="143" x2="12.1" y2="143" stroke="#000" stroke-width="0.2"/><line x1="11" y1="144" x2="12.1" y2="144" stroke="#000" stroke-width="0.2"/><line x1="11" y1="145" x2="16" y2="145" stroke="#000" stroke-width="0.2"/><line x1="11" y1="146" x2="12.1" y2="146" stroke="#000" stroke-width="0.2"/><line x1="11" y1="147" x2="12.1" y2="147" stroke="#000" stroke-width="0.2"/><line x1="11" y1="148" x2="12.1" y2="148" stroke="#000" stroke-width="0.2"/><line x1="11" y1="149" x2="12.1" y2="149" stroke="#000" stroke-width="0.2"/><line x1="11" y1="150" x2="13.2" y2="150" stroke="#000" stroke-width="0.2"/><line x1="11" y1="151" x2="12.1" y2="151" stroke="#000" stroke-width="0.2"/><line x1="11" y1="152" x2="12.1" y2="152" stroke="#000" stroke-width="0.2"/><line x1="11" y1="153" x2="12.1" y2="153" stroke="#000" stroke-width="0.2"/><line x1="11" y1="154" x2="12.1" y2="154" stroke="#000" stroke-width="0.2"/><line x1="11" y1="155" x2="14.5" y2="155" stroke="#000" stroke-width="0.2"/><line x1="11" y1="156" x2="12.1" y2="156" stroke="#000" stroke-width="0.2"/><line x1="11" y1="157" x2="12.1" y2="157" stroke="#000" stroke-width="0.2"/><line x1="11" y1="158" x2="12.1" y2="158" stroke="#000" stroke-width="0.2"/><line x1="11" y1="159" x2="12.1" y2="159" stroke="#000" stroke-width="0.2"/><line x1="11" y1="160" x2="13.2" y2="160" stroke="#000" stroke-width="0.2"/><line x1="11" y1="161" x2="12.1" y2="161" stroke="#000" stroke-width="0.2"/><line x1="11" y1="162" x2="12.1" y2="162" stroke="#000" stroke-width="0.2"/><line x1="11" y1="163" x2="12.1" y2="163" stroke="#000" stroke-width="0.2"/><line x1="11" y1="164" x2="12.1" y2="164" stroke="#000" stroke-width="0.2"/><line x1="11" y1="165" x2="14.5" y2="165" stroke="#000" stroke-width="0.2"/><line x1="11" y1="166" x2="12.1" y2="166" stroke="#000" stroke-width="0.2"/><line x1="11" y1="167" x2="12.1" y2="167" stroke="#000" stroke-width="0.2"/><line x1="11" y1="168" x2="12.1" y2="168" stroke="#000" stroke-width="0.2"/><line x1="11" y1="169" x2="12.1" y2="169" stroke="#000" stroke-width="0.2"/><line x1="11" y1="170" x2="13.2" y2="170" stroke="#000" stroke-width="0.2"/><line x1="11" y1="171" x2="12.1" y2="171" stroke="#000" stroke-width="0.2"/><line x1="11" y1="172" x2="12.1" y2="172" stroke="#000" stroke-width="0.2"/><line x1="11" y1="173" x2="12.1" y2="173" stroke="#000" stroke-width="0.2"/><line x1="11" y1="174" x2="12.1" y2="174" stroke="#000" stroke-width="0.2"/><line x1="11" y1="175" x2="14.5" y2="175" stroke="#000" stroke-width="0.2"/><line x1="11" y1="176" x2="12.1" y2="176" stroke="#000" stroke-width="0.2"/><line x1="11" y1="177" x2="12.1" y2="177" stroke="#000" stroke-width="0.2"/><line x1="11" y1="178" x2="12.1" y2="178" stroke="#000" stroke-width="0.2"/><line x1="11" y1="179" x2="12.1" y2="179" stroke="#000" stroke-width="0.2"/><line x1="11" y1="180" x2="13.2" y2="180" stroke="#000" stroke-width="0.2"/><line x1="11" y1="181" x2="12.1" y2="181" stroke="#000" stroke-width="0.2"/><line x1="11" y1="182" x2="12.1" y2="182" stroke="#000" stroke-width="0.2"/><line x1="11" y1="183" x2="12.1" y2="183" stroke="#000" stroke-width="0.2"/><line x1="11" y1="184" x2="12.1" y2="184" stroke="#000" stroke-width="0.2"/><line x1="11" y1="185" x2="14.5" y2="185" stroke="#000" stroke-width="0.2"/><line x1="11" y1="186" x2="12.1" y2="186" stroke="#000" stroke-width="0.2"/><line x1="11" y1="187" x2="12.1" y2="187" stroke="#000" stroke-width="0.2"/><line x1="11" y1="188" x2="12.1" y2="188" stroke="#000" stroke-width="0.2"/><line x1="11" y1="189" x2="12.1" y2="189" stroke="#000" stroke-width="0.2"/><line x1="11" y1="190" x2="13.2" y2="190" stroke="#000" stroke-width="0.2"/><line x1="11" y1="191" x2="12.1" y2="191" stroke="#000" stroke-width="0.2"/><line x1="11" y1="192" x2="12.1" y2="192" stroke="#000" stroke-width="0.2"/><line x1="11" y1="193" x2="12.1" y2="193" stroke="#000" stroke-width="0.2"/><line x1="11" y1="194" x2="12.1" y2="194" stroke="#000" stroke-width="0.2"/><line x1="11" y1="195" x2="16" y2="195" stroke="#000" stroke-width="0.2"/><line x1="11" y1="196" x2="12.1" y2="196" stroke="#000" stroke-width="0.2"/><line x1="11" y1="197" x2="12.1" y2="197" stroke="#000" stroke-width="0.2"/><line x1="11" y1="198" x2="12.1" y2="198" stroke="#000" stroke-width="0.2"/><line x1="11" y1="199" x2="12.1" y2="199" stroke="#000" stroke-width="0.2"/><line x1="11" y1="200" x2="13.2" y2="200" stroke="#000" stroke-width="0.2"/><line x1="11" y1="201" x2="12.1" y2="201" stroke="#000" stroke-width="0.2"/><line x1="11" y1="202" x2="12.1" y2="202" stroke="#000" stroke-width="0.2"/><line x1="11" y1="203" x2="12.1" y2="203" stroke="#000" stroke-width="0.2"/><line x1="11" y1="204" x2="12.1" y2="204" stroke="#000" stroke-width="0.2"/><line x1="11" y1="205" x2="14.5" y2="205" stroke="#000" stroke-width="0.2"/><line x1="11" y1="206" x2="12.1" y2="206" stroke="#000" stroke-width="0.2"/><line x1="11" y1="207" x2="12.1" y2="207" stroke="#000" stroke-width="0.2"/><line x1="11" y1="208" x2="12.1" y2="208" stroke="#000" stroke-width="0.2"/><line x1="11" y1="209" x2="12.1" y2="209" stroke="#000" stroke-width="0.2"/><line x1="11" y1="210" x2="13.2" y2="210" stroke="#000" stroke-width="0.2"/><line x1="11" y1="211" x2="12.1" y2="211" stroke="#000" stroke-width="0.2"/><line x1="11" y1="212" x2="12.1" y2="212" stroke="#000" stroke-width="0.2"/><line x1="11" y1="213" x2="12.1" y2="213" stroke="#000" stroke-width="0.2"/><line x1="11" y1="214" x2="12.1" y2="214" stroke="#000" stroke-width="0.2"/><line x1="11" y1="215" x2="14.5" y2="215" stroke="#000" stroke-width="0.2"/><line x1="11" y1="216" x2="12.1" y2="216" stroke="#000" stroke-width="0.2"/><line x1="11" y1="217" x2="12.1" y2="217" stroke="#000" stroke-width="0.2"/><line x1="11" y1="218" x2="12.1" y2="218" stroke="#000" stroke-width="0.2"/><line x1="11" y1="219" x2="12.1" y2="219" stroke="#000" stroke-width="0.2"/><line x1="11" y1="220" x2="13.2" y2="220" stroke="#000" stroke-width="0.2"/><line x1="11" y1="221" x2="12.1" y2="221" stroke="#000" stroke-width="0.2"/><line x1="11" y1="222" x2="12.1" y2="222" stroke="#000" stroke-width="0.2"/><line x1="11" y1="223" x2="12.1" y2="223" stroke="#000" stroke-width="0.2"/><line x1="11" y1="224" x2="12.1" y2="224" stroke="#000" stroke-width="0.2"/><line x1="11" y1="225" x2="14.5" y2="225" stroke="#000" stroke-width="0.2"/><line x1="11" y1="226" x2="12.1" y2="226" stroke="#000" stroke-width="0.2"/><line x1="11" y1="227" x2="12.1" y2="227" stroke="#000" stroke-width="0.2"/><line x1="11" y1="228" x2="12.1" y2="228" stroke="#000" stroke-width="0.2"/><line x1="11" y1="229" x2="12.1" y2="229" stroke="#000" stroke-width="0.2"/><line x1="11" y1="230" x2="13.2" y2="230" stroke="#000" stroke-width="0.2"/><line x1="11" y1="231" x2="12.1" y2="231" stroke="#000" stroke-width="0.2"/><line x1="11" y1="232" x2="12.1" y2="232" stroke="#000" stroke-width="0.2"/><line x1="11" y1="233" x2="12.1" y2="233" stroke="#000" stroke-width="0.2"/><line x1="11" y1="234" x2="12.1" y2="234" stroke="#000" stroke-width="0.2"/><line x1="11" y1="235" x2="14.5" y2="235" stroke="#000" stroke-width="0.2"/><line x1="11" y1="236" x2="12.1" y2="236" stroke="#000" stroke-width="0.2"/><line x1="11" y1="237" x2="12.1" y2="237" stroke="#000" stroke-width="0.2"/><line x1="11" y1="238" x2="12.1" y2="238" stroke="#000" stroke-width="0.2"/><line x1="11" y1="239" x2="12.1" y2="239" stroke="#000" stroke-width="0.2"/><line x1="11" y1="240" x2="13.2" y2="240" stroke="#000" stroke-width="0.2"/><line x1="11" y1="241" x2="12.1" y2="241" stroke="#000" stroke-width="0.2"/><line x1="11" y1="242" x2="12.1" y2="242" stroke="#000" stroke-width="0.2"/><line x1="11" y1="243" x2="12.1" y2="243" stroke="#000" stroke-width="0.2"/><line x1="11" y1="244" x2="12.1" y2="244" stroke="#000" stroke-width="0.2"/><line x1="11" y1="245" x2="16" y2="245" stroke="#000" stroke-width="0.2"/><line x1="11" y1="246" x2="12.1" y2="246" stroke="#000" stroke-width="0.2"/><line x1="11" y1="247" x2="12.1" y2="247" stroke="#000" stroke-width="0.2"/><line x1="11" y1="248" x2="12.1" y2="248" stroke="#000" stroke-width="0.2"/><line x1="11" y1="249" x2="12.1" y2="249" stroke="#000" stroke-width="0.2"/><line x1="11" y1="250" x2="13.2" y2="250" stroke="#000" stroke-width="0.2"/><line x1="11" y1="251" x2="12.1" y2="251" stroke="#000" stroke-width="0.2"/><line x1="11" y1="252" x2="12.1" y2="252" stroke="#000" stroke-width="0.2"/><line x1="199" y1="45" x2="199" y2="252" stroke="#000" stroke-width="0.3"/><line x1="199" y1="45" x2="194" y2="45" stroke="#000" stroke-width="0.2"/><line x1="199" y1="46" x2="197.9" y2="46" stroke="#000" stroke-width="0.2"/><line x1="199" y1="47" x2="197.9" y2="47" stroke="#000" stroke-width="0.2"/><line x1="199" y1="48" x2="197.9" y2="48" stroke="#000" stroke-width="0.2"/><line x1="199" y1="49" x2="197.9" y2="49" stroke="#000" stroke-width="0.2"/><line x1="199" y1="50" x2="196.8" y2="50" stroke="#000" stroke-width="0.2"/><line x1="199" y1="51" x2="197.9" y2="51" stroke="#000" stroke-width="0.2"/><line x1="199" y1="52" x2="197.9" y2="52" stroke="#000" stroke-width="0.2"/><line x1="199" y1="53" x2="197.9" y2="53" stroke="#000" stroke-width="0.2"/><line x1="199" y1="54" x2="197.9" y2="54" stroke="#000" stroke-width="0.2"/><line x1="199" y1="55" x2="195.5" y2="55" stroke="#000" stroke-width="0.2"/><line x1="199" y1="56" x2="197.9" y2="56" stroke="#000" stroke-width="0.2"/><line x1="199" y1="57" x2="197.9" y2="57" stroke="#000" stroke-width="0.2"/><line x1="199" y1="58" x2="197.9" y2="58" stroke="#000" stroke-width="0.2"/><line x1="199" y1="59" x2="197.9" y2="59" stroke="#000" stroke-width="0.2"/><line x1="199" y1="60" x2="196.8" y2="60" stroke="#000" stroke-width="0.2"/><line x1="199" y1="61" x2="197.9" y2="61" stroke="#000" stroke-width="0.2"/><line x1="199" y1="62" x2="197.9" y2="62" stroke="#000" stroke-width="0.2"/><line x1="199" y1="63" x2="197.9" y2="63" stroke="#000" stroke-width="0.2"/><line x1="199" y1="64" x2="197.9" y2="64" stroke="#000" stroke-width="0.2"/><line x1="199" y1="65" x2="195.5" y2="65" stroke="#000" stroke-width="0.2"/><line x1="199" y1="66" x2="197.9" y2="66" stroke="#000" stroke-width="0.2"/><line x1="199" y1="67" x2="197.9" y2="67" stroke="#000" stroke-width="0.2"/><line x1="199" y1="68" x2="197.9" y2="68" stroke="#000" stroke-width="0.2"/><line x1="199" y1="69" x2="197.9" y2="69" stroke="#000" stroke-width="0.2"/><line x1="199" y1="70" x2="196.8" y2="70" stroke="#000" stroke-width="0.2"/><line x1="199" y1="71" x2="197.9" y2="71" stroke="#000" stroke-width="0.2"/><line x1="199" y1="72" x2="197.9" y2="72" stroke="#000" stroke-width="0.2"/><line x1="199" y1="73" x2="197.9" y2="73" stroke="#000" stroke-width="0.2"/><line x1="199" y1="74" x2="197.9" y2="74" stroke="#000" stroke-width="0.2"/><line x1="199" y1="75" x2="195.5" y2="75" stroke="#000" stroke-width="0.2"/><line x1="199" y1="76" x2="197.9" y2="76" stroke="#000" stroke-width="0.2"/><line x1="199" y1="77" x2="197.9" y2="77" stroke="#000" stroke-width="0.2"/><line x1="199" y1="78" x2="197.9" y2="78" stroke="#000" stroke-width="0.2"/><line x1="199" y1="79" x2="197.9" y2="79" stroke="#000" stroke-width="0.2"/><line x1="199" y1="80" x2="196.8" y2="80" stroke="#000" stroke-width="0.2"/><line x1="199" y1="81" x2="197.9" y2="81" stroke="#000" stroke-width="0.2"/><line x1="199" y1="82" x2="197.9" y2="82" stroke="#000" stroke-width="0.2"/><line x1="199" y1="83" x2="197.9" y2="83" stroke="#000" stroke-width="0.2"/><line x1="199" y1="84" x2="197.9" y2="84" stroke="#000" stroke-width="0.2"/><line x1="199" y1="85" x2="195.5" y2="85" stroke="#000" stroke-width="0.2"/><line x1="199" y1="86" x2="197.9" y2="86" stroke="#000" stroke-width="0.2"/><line x1="199" y1="87" x2="197.9" y2="87" stroke="#000" stroke-width="0.2"/><line x1="199" y1="88" x2="197.9" y2="88" stroke="#000" stroke-width="0.2"/><line x1="199" y1="89" x2="197.9" y2="89" stroke="#000" stroke-width="0.2"/><line x1="199" y1="90" x2="196.8" y2="90" stroke="#000" stroke-width="0.2"/><line x1="199" y1="91" x2="197.9" y2="91" stroke="#000" stroke-width="0.2"/><line x1="199" y1="92" x2="197.9" y2="92" stroke="#000" stroke-width="0.2"/><line x1="199" y1="93" x2="197.9" y2="93" stroke="#000" stroke-width="0.2"/><line x1="199" y1="94" x2="197.9" y2="94" stroke="#000" stroke-width="0.2"/><line x1="199" y1="95" x2="194" y2="95" stroke="#000" stroke-width="0.2"/><line x1="199" y1="96" x2="197.9" y2="96" stroke="#000" stroke-width="0.2"/><line x1="199" y1="97" x2="197.9" y2="97" stroke="#000" stroke-width="0.2"/><line x1="199" y1="98" x2="197.9" y2="98" stroke="#000" stroke-width="0.2"/><line x1="199" y1="99" x2="197.9" y2="99" stroke="#000" stroke-width="0.2"/><line x1="199" y1="100" x2="196.8" y2="100" stroke="#000" stroke-width="0.2"/><line x1="199" y1="101" x2="197.9" y2="101" stroke="#000" stroke-width="0.2"/><line x1="199" y1="102" x2="197.9" y2="102" stroke="#000" stroke-width="0.2"/><line x1="199" y1="103" x2="197.9" y2="103" stroke="#000" stroke-width="0.2"/><line x1="199" y1="104" x2="197.9" y2="104" stroke="#000" stroke-width="0.2"/><line x1="199" y1="105" x2="195.5" y2="105" stroke="#000" stroke-width="0.2"/><line x1="199" y1="106" x2="197.9" y2="106" stroke="#000" stroke-width="0.2"/><line x1="199" y1="107" x2="197.9" y2="107" stroke="#000" stroke-width="0.2"/><line x1="199" y1="108" x2="197.9" y2="108" stroke="#000" stroke-width="0.2"/><line x1="199" y1="109" x2="197.9" y2="109" stroke="#000" stroke-width="0.2"/><line x1="199" y1="110" x2="196.8" y2="110" stroke="#000" stroke-width="0.2"/><line x1="199" y1="111" x2="197.9" y2="111" stroke="#000" stroke-width="0.2"/><line x1="199" y1="112" x2="197.9" y2="112" stroke="#000" stroke-width="0.2"/><line x1="199" y1="113" x2="197.9" y2="113" stroke="#000" stroke-width="0.2"/><line x1="199" y1="114" x2="197.9" y2="114" stroke="#000" stroke-width="0.2"/><line x1="199" y1="115" x2="195.5" y2="115" stroke="#000" stroke-width="0.2"/><line x1="199" y1="116" x2="197.9" y2="116" stroke="#000" stroke-width="0.2"/><line x1="199" y1="117" x2="197.9" y2="117" stroke="#000" stroke-width="0.2"/><line x1="199" y1="118" x2="197.9" y2="118" stroke="#000" stroke-width="0.2"/><line x1="199" y1="119" x2="197.9" y2="119" stroke="#000" stroke-width="0.2"/><line x1="199" y1="120" x2="196.8" y2="120" stroke="#000" stroke-width="0.2"/><line x1="199" y1="121" x2="197.9" y2="121" stroke="#000" stroke-width="0.2"/><line x1="199" y1="122" x2="197.9" y2="122" stroke="#000" stroke-width="0.2"/><line x1="199" y1="123" x2="197.9" y2="123" stroke="#000" stroke-width="0.2"/><line x1="199" y1="124" x2="197.9" y2="124" stroke="#000" stroke-width="0.2"/><line x1="199" y1="125" x2="195.5" y2="125" stroke="#000" stroke-width="0.2"/><line x1="199" y1="126" x2="197.9" y2="126" stroke="#000" stroke-width="0.2"/><line x1="199" y1="127" x2="197.9" y2="127" stroke="#000" stroke-width="0.2"/><line x1="199" y1="128" x2="197.9" y2="128" stroke="#000" stroke-width="0.2"/><line x1="199" y1="129" x2="197.9" y2="129" stroke="#000" stroke-width="0.2"/><line x1="199" y1="130" x2="196.8" y2="130" stroke="#000" stroke-width="0.2"/><line x1="199" y1="131" x2="197.9" y2="131" stroke="#000" stroke-width="0.2"/><line x1="199" y1="132" x2="197.9" y2="132" stroke="#000" stroke-width="0.2"/><line x1="199" y1="133" x2="197.9" y2="133" stroke="#000" stroke-width="0.2"/><line x1="199" y1="134" x2="197.9" y2="134" stroke="#000" stroke-width="0.2"/><line x1="199" y1="135" x2="195.5" y2="135" stroke="#000" stroke-width="0.2"/><line x1="199" y1="136" x2="197.9" y2="136" stroke="#000" stroke-width="0.2"/><line x1="199" y1="137" x2="197.9" y2="137" stroke="#000" stroke-width="0.2"/><line x1="199" y1="138" x2="197.9" y2="138" stroke="#000" stroke-width="0.2"/><line x1="199" y1="139" x2="197.9" y2="139" stroke="#000" stroke-width="0.2"/><line x1="199" y1="140" x2="196.8" y2="140" stroke="#000" stroke-width="0.2"/><line x1="199" y1="141" x2="197.9" y2="141" stroke="#000" stroke-width="0.2"/><line x1="199" y1="142" x2="197.9" y2="142" stroke="#000" stroke-width="0.2"/><line x1="199" y1="143" x2="197.9" y2="143" stroke="#000" stroke-width="0.2"/><line x1="199" y1="144" x2="197.9" y2="144" stroke="#000" stroke-width="0.2"/><line x1="199" y1="145" x2="194" y2="145" stroke="#000" stroke-width="0.2"/><line x1="199" y1="146" x2="197.9" y2="146" stroke="#000" stroke-width="0.2"/><line x1="199" y1="147" x2="197.9" y2="147" stroke="#000" stroke-width="0.2"/><line x1="199" y1="148" x2="197.9" y2="148" stroke="#000" stroke-width="0.2"/><line x1="199" y1="149" x2="197.9" y2="149" stroke="#000" stroke-width="0.2"/><line x1="199" y1="150" x2="196.8" y2="150" stroke="#000" stroke-width="0.2"/><line x1="199" y1="151" x2="197.9" y2="151" stroke="#000" stroke-width="0.2"/><line x1="199" y1="152" x2="197.9" y2="152" stroke="#000" stroke-width="0.2"/><line x1="199" y1="153" x2="197.9" y2="153" stroke="#000" stroke-width="0.2"/><line x1="199" y1="154" x2="197.9" y2="154" stroke="#000" stroke-width="0.2"/><line x1="199" y1="155" x2="195.5" y2="155" stroke="#000" stroke-width="0.2"/><line x1="199" y1="156" x2="197.9" y2="156" stroke="#000" stroke-width="0.2"/><line x1="199" y1="157" x2="197.9" y2="157" stroke="#000" stroke-width="0.2"/><line x1="199" y1="158" x2="197.9" y2="158" stroke="#000" stroke-width="0.2"/><line x1="199" y1="159" x2="197.9" y2="159" stroke="#000" stroke-width="0.2"/><line x1="199" y1="160" x2="196.8" y2="160" stroke="#000" stroke-width="0.2"/><line x1="199" y1="161" x2="197.9" y2="161" stroke="#000" stroke-width="0.2"/><line x1="199" y1="162" x2="197.9" y2="162" stroke="#000" stroke-width="0.2"/><line x1="199" y1="163" x2="197.9" y2="163" stroke="#000" stroke-width="0.2"/><line x1="199" y1="164" x2="197.9" y2="164" stroke="#000" stroke-width="0.2"/><line x1="199" y1="165" x2="195.5" y2="165" stroke="#000" stroke-width="0.2"/><line x1="199" y1="166" x2="197.9" y2="166" stroke="#000" stroke-width="0.2"/><line x1="199" y1="167" x2="197.9" y2="167" stroke="#000" stroke-width="0.2"/><line x1="199" y1="168" x2="197.9" y2="168" stroke="#000" stroke-width="0.2"/><line x1="199" y1="169" x2="197.9" y2="169" stroke="#000" stroke-width="0.2"/><line x1="199" y1="170" x2="196.8" y2="170" stroke="#000" stroke-width="0.2"/><line x1="199" y1="171" x2="197.9" y2="171" stroke="#000" stroke-width="0.2"/><line x1="199" y1="172" x2="197.9" y2="172" stroke="#000" stroke-width="0.2"/><line x1="199" y1="173" x2="197.9" y2="173" stroke="#000" stroke-width="0.2"/><line x1="199" y1="174" x2="197.9" y2="174" stroke="#000" stroke-width="0.2"/><line x1="199" y1="175" x2="195.5" y2="175" stroke="#000" stroke-width="0.2"/><line x1="199" y1="176" x2="197.9" y2="176" stroke="#000" stroke-width="0.2"/><line x1="199" y1="177" x2="197.9" y2="177" stroke="#000" stroke-width="0.2"/><line x1="199" y1="178" x2="197.9" y2="178" stroke="#000" stroke-width="0.2"/><line x1="199" y1="179" x2="197.9" y2="179" stroke="#000" stroke-width="0.2"/><line x1="199" y1="180" x2="196.8" y2="180" stroke="#000" stroke-width="0.2"/><line x1="199" y1="181" x2="197.9" y2="181" stroke="#000" stroke-width="0.2"/><line x1="199" y1="182" x2="197.9" y2="182" stroke="#000" stroke-width="0.2"/><line x1="199" y1="183" x2="197.9" y2="183" stroke="#000" stroke-width="0.2"/><line x1="199" y1="184" x2="197.9" y2="184" stroke="#000" stroke-width="0.2"/><line x1="199" y1="185" x2="195.5" y2="185" stroke="#000" stroke-width="0.2"/><line x1="199" y1="186" x2="197.9" y2="186" stroke="#000" stroke-width="0.2"/><line x1="199" y1="187" x2="197.9" y2="187" stroke="#000" stroke-width="0.2"/><line x1="199" y1="188" x2="197.9" y2="188" stroke="#000" stroke-width="0.2"/><line x1="199" y1="189" x2="197.9" y2="189" stroke="#000" stroke-width="0.2"/><line x1="199" y1="190" x2="196.8" y2="190" stroke="#000" stroke-width="0.2"/><line x1="199" y1="191" x2="197.9" y2="191" stroke="#000" stroke-width="0.2"/><line x1="199" y1="192" x2="197.9" y2="192" stroke="#000" stroke-width="0.2"/><line x1="199" y1="193" x2="197.9" y2="193" stroke="#000" stroke-width="0.2"/><line x1="199" y1="194" x2="197.9" y2="194" stroke="#000" stroke-width="0.2"/><line x1="199" y1="195" x2="194" y2="195" stroke="#000" stroke-width="0.2"/><line x1="199" y1="196" x2="197.9" y2="196" stroke="#000" stroke-width="0.2"/><line x1="199" y1="197" x2="197.9" y2="197" stroke="#000" stroke-width="0.2"/><line x1="199" y1="198" x2="197.9" y2="198" stroke="#000" stroke-width="0.2"/><line x1="199" y1="199" x2="197.9" y2="199" stroke="#000" stroke-width="0.2"/><line x1="199" y1="200" x2="196.8" y2="200" stroke="#000" stroke-width="0.2"/><line x1="199" y1="201" x2="197.9" y2="201" stroke="#000" stroke-width="0.2"/><line x1="199" y1="202" x2="197.9" y2="202" stroke="#000" stroke-width="0.2"/><line x1="199" y1="203" x2="197.9" y2="203" stroke="#000" stroke-width="0.2"/><line x1="199" y1="204" x2="197.9" y2="204" stroke="#000" stroke-width="0.2"/><line x1="199" y1="205" x2="195.5" y2="205" stroke="#000" stroke-width="0.2"/><line x1="199" y1="206" x2="197.9" y2="206" stroke="#000" stroke-width="0.2"/><line x1="199" y1="207" x2="197.9" y2="207" stroke="#000" stroke-width="0.2"/><line x1="199" y1="208" x2="197.9" y2="208" stroke="#000" stroke-width="0.2"/><line x1="199" y1="209" x2="197.9" y2="209" stroke="#000" stroke-width="0.2"/><line x1="199" y1="210" x2="196.8" y2="210" stroke="#000" stroke-width="0.2"/><line x1="199" y1="211" x2="197.9" y2="211" stroke="#000" stroke-width="0.2"/><line x1="199" y1="212" x2="197.9" y2="212" stroke="#000" stroke-width="0.2"/><line x1="199" y1="213" x2="197.9" y2="213" stroke="#000" stroke-width="0.2"/><line x1="199" y1="214" x2="197.9" y2="214" stroke="#000" stroke-width="0.2"/><line x1="199" y1="215" x2="195.5" y2="215" stroke="#000" stroke-width="0.2"/><line x1="199" y1="216" x2="197.9" y2="216" stroke="#000" stroke-width="0.2"/><line x1="199" y1="217" x2="197.9" y2="217" stroke="#000" stroke-width="0.2"/><line x1="199" y1="218" x2="197.9" y2="218" stroke="#000" stroke-width="0.2"/><line x1="199" y1="219" x2="197.9" y2="219" stroke="#000" stroke-width="0.2"/><line x1="199" y1="220" x2="196.8" y2="220" stroke="#000" stroke-width="0.2"/><line x1="199" y1="221" x2="197.9" y2="221" stroke="#000" stroke-width="0.2"/><line x1="199" y1="222" x2="197.9" y2="222" stroke="#000" stroke-width="0.2"/><line x1="199" y1="223" x2="197.9" y2="223" stroke="#000" stroke-width="0.2"/><line x1="199" y1="224" x2="197.9" y2="224" stroke="#000" stroke-width="0.2"/><line x1="199" y1="225" x2="195.5" y2="225" stroke="#000" stroke-width="0.2"/><line x1="199" y1="226" x2="197.9" y2="226" stroke="#000" stroke-width="0.2"/><line x1="199" y1="227" x2="197.9" y2="227" stroke="#000" stroke-width="0.2"/><line x1="199" y1="228" x2="197.9" y2="228" stroke="#000" stroke-width="0.2"/><line x1="199" y1="229" x2="197.9" y2="229" stroke="#000" stroke-width="0.2"/><line x1="199" y1="230" x2="196.8" y2="230" stroke="#000" stroke-width="0.2"/><line x1="199" y1="231" x2="197.9" y2="231" stroke="#000" stroke-width="0.2"/><line x1="199" y1="232" x2="197.9" y2="232" stroke="#000" stroke-width="0.2"/><line x1="199" y1="233" x2="197.9" y2="233" stroke="#000" stroke-width="0.2"/><line x1="199" y1="234" x2="197.9" y2="234" stroke="#000" stroke-width="0.2"/><line x1="199" y1="235" x2="195.5" y2="235" stroke="#000" stroke-width="0.2"/><line x1="199" y1="236" x2="197.9" y2="236" stroke="#000" stroke-width="0.2"/><line x1="199" y1="237" x2="197.9" y2="237" stroke="#000" stroke-width="0.2"/><line x1="199" y1="238" x2="197.9" y2="238" stroke="#000" stroke-width="0.2"/><line x1="199" y1="239" x2="197.9" y2="239" stroke="#000" stroke-width="0.2"/><line x1="199" y1="240" x2="196.8" y2="240" stroke="#000" stroke-width="0.2"/><line x1="199" y1="241" x2="197.9" y2="241" stroke="#000" stroke-width="0.2"/><line x1="199" y1="242" x2="197.9" y2="242" stroke="#000" stroke-width="0.2"/><line x1="199" y1="243" x2="197.9" y2="243" stroke="#000" stroke-width="0.2"/><line x1="199" y1="244" x2="197.9" y2="244" stroke="#000" stroke-width="0.2"/><line x1="199" y1="245" x2="194" y2="245" stroke="#000" stroke-width="0.2"/><line x1="199" y1="246" x2="197.9" y2="246" stroke="#000" stroke-width="0.2"/><line x1="199" y1="247" x2="197.9" y2="247" stroke="#000" stroke-width="0.2"/><line x1="199" y1="248" x2="197.9" y2="248" stroke="#000" stroke-width="0.2"/><line x1="199" y1="249" x2="197.9" y2="249" stroke="#000" stroke-width="0.2"/><line x1="199" y1="250" x2="196.8" y2="250" stroke="#000" stroke-width="0.2"/><line x1="199" y1="251" x2="197.9" y2="251" stroke="#000" stroke-width="0.2"/><line x1="199" y1="252" x2="197.9" y2="252" stroke="#000" stroke-width="0.2"/><text x="18" y="46" font-family="Arial, Helvetica, sans-serif" font-size="2.2" font-weight="400" text-anchor="start" fill="#000">0</text><text x="192" y="46" font-family="Arial, Helvetica, sans-serif" font-size="2.2" font-weight="400" text-anchor="end" fill="#000">0</text><text x="18" y="96" font-family="Arial, Helvetica, sans-serif" font-size="2.2" font-weight="400" text-anchor="start" fill="#000">50</text><text x="192" y="96" font-family="Arial, Helvetica, sans-serif" font-size="2.2" font-weight="400" text-anchor="end" fill="#000">50</text><text x="18" y="146" font-family="Arial, Helvetica, sans-serif" font-size="2.2" font-weight="400" text-anchor="start" fill="#000">100</text><text x="192" y="146" font-family="Arial, Helvetica, sans-serif" font-size="2.2" font-weight="400" text-anchor="end" fill="#000">100</text><text x="18" y="196" font-family="Arial, Helvetica, sans-serif" font-size="2.2" font-weight="400" text-anchor="start" fill="#000">150</text><text x="192" y="196" font-family="Arial, Helvetica, sans-serif" font-size="2.2" font-weight="400" text-anchor="end" fill="#000">150</text><text x="18" y="246" font-family="Arial, Helvetica, sans-serif" font-size="2.2" font-weight="400" text-anchor="start" fill="#000">200</text><text x="192" y="246" font-family="Arial, Helvetica, sans-serif" font-size="2.2" font-weight="400" text-anchor="end" fill="#000">200</text><line x1="11" y1="252" x2="26" y2="252" stroke="#000" stroke-width="0.5"/><line x1="184" y1="252" x2="199" y2="252" stroke="#000" stroke-width="0.5"/><line x1="75" y1="8" x2="79" y2="8" stroke="#555" stroke-width="0.5"/><line x1="75" y1="8" x2="75" y2="12" stroke="#555" stroke-width="0.5"/><line x1="135" y1="8" x2="131" y2="8" stroke="#555" stroke-width="0.5"/><line x1="135" y1="8" x2="135" y2="12" stroke="#555" stroke-width="0.5"/><line x1="75" y1="38" x2="79" y2="38" stroke="#555" stroke-width="0.5"/><line x1="75" y1="38" x2="75" y2="34" stroke="#555" stroke-width="0.5"/><line x1="135" y1="38" x2="131" y2="38" stroke="#555" stroke-width="0.5"/><line x1="135" y1="38" x2="135" y2="34" stroke="#555" stroke-width="0.5"/><g><rect x="78" y="11" width="24" height="24" fill="#fff" stroke="#000" stroke-width="0.2"/><rect x="78" y="11" width="8" height="8" fill="#000"/><rect x="79.143" y="12.143" width="5.7142857142857135" height="5.7142857142857135" fill="#fff"/><rect x="80.286" y="13.286" width="3.4285714285714284" height="3.4285714285714284" fill="#000"/><rect x="94" y="11" width="8" height="8" fill="#000"/><rect x="95.143" y="12.143" width="5.7142857142857135" height="5.7142857142857135" fill="#fff"/><rect x="96.286" y="13.286" width="3.4285714285714284" height="3.4285714285714284" fill="#000"/><rect x="78" y="27" width="8" height="8" fill="#000"/><rect x="79.143" y="28.143" width="5.7142857142857135" height="5.7142857142857135" fill="#fff"/><rect x="80.286" y="29.286" width="3.4285714285714284" height="3.4285714285714284" fill="#000"/><rect x="87.143" y="11" width="1.143" height="1.143" fill="#000"/><rect x="89.429" y="11" width="1.143" height="1.143" fill="#000"/><rect x="90.571" y="11" width="1.143" height="1.143" fill="#000"/><rect x="91.714" y="11" width="1.143" height="1.143" fill="#000"/><rect x="87.143" y="12.143" width="1.143" height="1.143" fill="#000"/><rect x="88.286" y="12.143" width="1.143" height="1.143" fill="#000"/><rect x="89.429" y="12.143" width="1.143" height="1.143" fill="#000"/><rect x="91.714" y="12.143" width="1.143" height="1.143" fill="#000"/><rect x="89.429" y="13.286" width="1.143" height="1.143" fill="#000"/><rect x="89.429" y="14.429" width="1.143" height="1.143" fill="#000"/><rect x="90.571" y="14.429" width="1.143" height="1.143" fill="#000"/><rect x="91.714" y="14.429" width="1.143" height="1.143" fill="#000"/><rect x="87.143" y="15.571" width="1.143" height="1.143" fill="#000"/><rect x="89.429" y="15.571" width="1.143" height="1.143" fill="#000"/><rect x="87.143" y="16.714" width="1.143" height="1.143" fill="#000"/><rect x="89.429" y="16.714" width="1.143" height="1.143" fill="#000"/><rect x="87.143" y="17.857" width="1.143" height="1.143" fill="#000"/><rect x="88.286" y="17.857" width="1.143" height="1.143" fill="#000"/><rect x="89.429" y="17.857" width="1.143" height="1.143" fill="#000"/><rect x="90.571" y="17.857" width="1.143" height="1.143" fill="#000"/><rect x="91.714" y="17.857" width="1.143" height="1.143" fill="#000"/><rect x="87.143" y="19" width="1.143" height="1.143" fill="#000"/><rect x="91.714" y="19" width="1.143" height="1.143" fill="#000"/><rect x="80.286" y="20.143" width="1.143" height="1.143" fill="#000"/><rect x="82.571" y="20.143" width="1.143" height="1.143" fill="#000"/><rect x="83.714" y="20.143" width="1.143" height="1.143" fill="#000"/><rect x="87.143" y="20.143" width="1.143" height="1.143" fill="#000"/><rect x="90.571" y="20.143" width="1.143" height="1.143" fill="#000"/><rect x="91.714" y="20.143" width="1.143" height="1.143" fill="#000"/><rect x="94" y="20.143" width="1.143" height="1.143" fill="#000"/><rect x="95.143" y="20.143" width="1.143" height="1.143" fill="#000"/><rect x="97.429" y="20.143" width="1.143" height="1.143" fill="#000"/><rect x="100.857" y="20.143" width="1.143" height="1.143" fill="#000"/><rect x="78" y="21.286" width="1.143" height="1.143" fill="#000"/><rect x="83.714" y="21.286" width="1.143" height="1.143" fill="#000"/><rect x="87.143" y="21.286" width="1.143" height="1.143" fill="#000"/><rect x="88.286" y="21.286" width="1.143" height="1.143" fill="#000"/><rect x="89.429" y="21.286" width="1.143" height="1.143" fill="#000"/><rect x="90.571" y="21.286" width="1.143" height="1.143" fill="#000"/><rect x="95.143" y="21.286" width="1.143" height="1.143" fill="#000"/><rect x="96.286" y="21.286" width="1.143" height="1.143" fill="#000"/><rect x="99.714" y="21.286" width="1.143" height="1.143" fill="#000"/><rect x="79.143" y="22.429" width="1.143" height="1.143" fill="#000"/><rect x="80.286" y="22.429" width="1.143" height="1.143" fill="#000"/><rect x="83.714" y="22.429" width="1.143" height="1.143" fill="#000"/><rect x="87.143" y="22.429" width="1.143" height="1.143" fill="#000"/><rect x="89.429" y="22.429" width="1.143" height="1.143" fill="#000"/><rect x="91.714" y="22.429" width="1.143" height="1.143" fill="#000"/><rect x="92.857" y="22.429" width="1.143" height="1.143" fill="#000"/><rect x="96.286" y="22.429" width="1.143" height="1.143" fill="#000"/><rect x="100.857" y="22.429" width="1.143" height="1.143" fill="#000"/><rect x="82.571" y="23.571" width="1.143" height="1.143" fill="#000"/><rect x="84.857" y="23.571" width="1.143" height="1.143" fill="#000"/><rect x="86" y="23.571" width="1.143" height="1.143" fill="#000"/><rect x="87.143" y="23.571" width="1.143" height="1.143" fill="#000"/><rect x="88.286" y="23.571" width="1.143" height="1.143" fill="#000"/><rect x="89.429" y="23.571" width="1.143" height="1.143" fill="#000"/><rect x="95.143" y="23.571" width="1.143" height="1.143" fill="#000"/><rect x="96.286" y="23.571" width="1.143" height="1.143" fill="#000"/><rect x="97.429" y="23.571" width="1.143" height="1.143" fill="#000"/><rect x="98.571" y="23.571" width="1.143" height="1.143" fill="#000"/><rect x="99.714" y="23.571" width="1.143" height="1.143" fill="#000"/><rect x="100.857" y="23.571" width="1.143" height="1.143" fill="#000"/><rect x="79.143" y="24.714" width="1.143" height="1.143" fill="#000"/><rect x="80.286" y="24.714" width="1.143" height="1.143" fill="#000"/><rect x="83.714" y="24.714" width="1.143" height="1.143" fill="#000"/><rect x="84.857" y="24.714" width="1.143" height="1.143" fill="#000"/><rect x="86" y="24.714" width="1.143" height="1.143" fill="#000"/><rect x="92.857" y="24.714" width="1.143" height="1.143" fill="#000"/><rect x="94" y="24.714" width="1.143" height="1.143" fill="#000"/><rect x="96.286" y="24.714" width="1.143" height="1.143" fill="#000"/><rect x="99.714" y="24.714" width="1.143" height="1.143" fill="#000"/><rect x="100.857" y="24.714" width="1.143" height="1.143" fill="#000"/><rect x="87.143" y="25.857" width="1.143" height="1.143" fill="#000"/><rect x="88.286" y="25.857" width="1.143" height="1.143" fill="#000"/><rect x="90.571" y="25.857" width="1.143" height="1.143" fill="#000"/><rect x="92.857" y="25.857" width="1.143" height="1.143" fill="#000"/><rect x="96.286" y="25.857" width="1.143" height="1.143" fill="#000"/><rect x="98.571" y="25.857" width="1.143" height="1.143" fill="#000"/><rect x="87.143" y="27" width="1.143" height="1.143" fill="#000"/><rect x="89.429" y="27" width="1.143" height="1.143" fill="#000"/><rect x="90.571" y="27" width="1.143" height="1.143" fill="#000"/><rect x="92.857" y="27" width="1.143" height="1.143" fill="#000"/><rect x="95.143" y="27" width="1.143" height="1.143" fill="#000"/><rect x="96.286" y="27" width="1.143" height="1.143" fill="#000"/><rect x="98.571" y="27" width="1.143" height="1.143" fill="#000"/><rect x="99.714" y="27" width="1.143" height="1.143" fill="#000"/><rect x="100.857" y="27" width="1.143" height="1.143" fill="#000"/><rect x="88.286" y="28.143" width="1.143" height="1.143" fill="#000"/><rect x="91.714" y="28.143" width="1.143" height="1.143" fill="#000"/><rect x="92.857" y="28.143" width="1.143" height="1.143" fill="#000"/><rect x="95.143" y="28.143" width="1.143" height="1.143" fill="#000"/><rect x="100.857" y="28.143" width="1.143" height="1.143" fill="#000"/><rect x="87.143" y="29.286" width="1.143" height="1.143" fill="#000"/><rect x="88.286" y="29.286" width="1.143" height="1.143" fill="#000"/><rect x="91.714" y="29.286" width="1.143" height="1.143" fill="#000"/><rect x="97.429" y="29.286" width="1.143" height="1.143" fill="#000"/><rect x="98.571" y="29.286" width="1.143" height="1.143" fill="#000"/><rect x="100.857" y="29.286" width="1.143" height="1.143" fill="#000"/><rect x="88.286" y="30.429" width="1.143" height="1.143" fill="#000"/><rect x="90.571" y="30.429" width="1.143" height="1.143" fill="#000"/><rect x="95.143" y="30.429" width="1.143" height="1.143" fill="#000"/><rect x="97.429" y="30.429" width="1.143" height="1.143" fill="#000"/><rect x="90.571" y="31.571" width="1.143" height="1.143" fill="#000"/><rect x="97.429" y="31.571" width="1.143" height="1.143" fill="#000"/><rect x="98.571" y="31.571" width="1.143" height="1.143" fill="#000"/><rect x="99.714" y="31.571" width="1.143" height="1.143" fill="#000"/><rect x="100.857" y="31.571" width="1.143" height="1.143" fill="#000"/><rect x="89.429" y="32.714" width="1.143" height="1.143" fill="#000"/><rect x="90.571" y="32.714" width="1.143" height="1.143" fill="#000"/><rect x="94" y="32.714" width="1.143" height="1.143" fill="#000"/><rect x="95.143" y="32.714" width="1.143" height="1.143" fill="#000"/><rect x="87.143" y="33.857" width="1.143" height="1.143" fill="#000"/><rect x="88.286" y="33.857" width="1.143" height="1.143" fill="#000"/><rect x="89.429" y="33.857" width="1.143" height="1.143" fill="#000"/><rect x="90.571" y="33.857" width="1.143" height="1.143" fill="#000"/><rect x="91.714" y="33.857" width="1.143" height="1.143" fill="#000"/><rect x="92.857" y="33.857" width="1.143" height="1.143" fill="#000"/><rect x="95.143" y="33.857" width="1.143" height="1.143" fill="#000"/><rect x="96.286" y="33.857" width="1.143" height="1.143" fill="#000"/><rect x="97.429" y="33.857" width="1.143" height="1.143" fill="#000"/><rect x="98.571" y="33.857" width="1.143" height="1.143" fill="#000"/><rect x="99.714" y="33.857" width="1.143" height="1.143" fill="#000"/><rect x="100.857" y="33.857" width="1.143" height="1.143" fill="#000"/></g><text x="106" y="26.5" font-family="Arial, Helvetica, sans-serif" font-size="9" font-weight="700" text-anchor="start" fill="#000">P###</text><text x="106" y="13" font-family="Arial, Helvetica, sans-serif" font-size="2.4" font-weight="400" text-anchor="start" fill="#555">participant card</text><text x="44" y="18" font-family="Arial, Helvetica, sans-serif" font-size="3.2" font-weight="700" text-anchor="start" fill="#000">G02 ×3</text><text x="44" y="23" font-family="Arial, Helvetica, sans-serif" font-size="3.2" font-weight="700" text-anchor="start" fill="#000">G04 ×2</text><text x="166" y="18" font-family="Arial, Helvetica, sans-serif" font-size="3.2" font-weight="700" text-anchor="end" fill="#000">OPEN MOUSE</text><text x="166" y="23" font-family="Arial, Helvetica, sans-serif" font-size="2.8" font-weight="400" text-anchor="end" fill="#555">sheet C</text></svg>